<svg width="400" height="200" viewBox="0 0 400 200" fill="none" xmlns="http://www.w3.org/2000/svg">
<path d="M50 83.1941H52.547L74.7427 111.284L96.7928 83.1941H99.3398V117.106H97.8844L97.8116 84.1159L74.7427 113.37H74.5972L51.4555 84.1159V117.106H50V83.1941Z" fill="#777887"/>
<path d="M141.421 83C146.127 83 150.469 83.7762 154.448 85.3287C158.474 86.8489 161.652 88.9188 163.981 91.5387C166.358 94.1585 167.547 97.0047 167.547 100.077C167.547 103.15 166.358 106.012 163.981 108.665C161.652 111.284 158.474 113.37 154.448 114.923C150.469 116.475 146.127 117.252 141.421 117.252C136.715 117.252 132.349 116.475 128.322 114.923C124.344 113.37 121.166 111.284 118.789 108.665C116.46 106.012 115.296 103.15 115.296 100.077C115.296 97.0047 116.46 94.1585 118.789 91.5387C121.166 88.9188 124.344 86.8489 128.322 85.3287C132.349 83.7762 136.715 83 141.421 83ZM141.421 83.9703C137.007 83.9703 132.907 84.698 129.123 86.1535C125.339 87.6089 122.331 89.5819 120.099 92.0723C117.867 94.5304 116.751 97.1988 116.751 100.077C116.751 102.988 117.867 105.689 120.099 108.179C122.331 110.67 125.339 112.643 129.123 114.098C132.907 115.554 137.007 116.281 141.421 116.281C145.836 116.281 149.936 115.554 153.72 114.098C157.504 112.643 160.512 110.67 162.744 108.179C164.975 105.689 166.091 102.988 166.091 100.077C166.091 97.1988 164.975 94.5304 162.744 92.0723C160.512 89.5819 157.504 87.6089 153.72 86.1535C149.936 84.698 145.836 83.9703 141.421 83.9703Z" fill="#777887"/>
<path d="M175.19 83.1941H211.576V84.1644H194.111V117.106H192.655V84.1644H175.19V83.1941Z" fill="#9596A0"/>
<path d="M224.825 83.1941H226.28V117.106H224.825V83.1941Z" fill="#B0B0B5"/>
<path d="M268.347 83C273.053 83 277.395 83.7762 281.373 85.3287C285.4 86.8489 288.578 88.9188 290.907 91.5387C293.284 94.1585 294.473 97.0047 294.473 100.077C294.473 103.15 293.284 106.012 290.907 108.665C288.578 111.284 285.4 113.37 281.373 114.923C277.395 116.475 273.053 117.252 268.347 117.252C263.641 117.252 259.275 116.475 255.248 114.923C251.27 113.37 248.092 111.284 245.715 108.665C243.386 106.012 242.222 103.15 242.222 100.077C242.222 97.0047 243.386 94.1585 245.715 91.5387C248.092 88.9188 251.27 86.8489 255.248 85.3287C259.275 83.7762 263.641 83 268.347 83ZM268.347 83.9703C263.932 83.9703 259.833 84.698 256.049 86.1535C252.264 87.6089 249.256 89.5819 247.025 92.0723C244.793 94.5304 243.677 97.1988 243.677 100.077C243.677 102.988 244.793 105.689 247.025 108.179C249.256 110.67 252.264 112.643 256.049 114.098C259.833 115.554 263.932 116.281 268.347 116.281C272.762 116.281 276.862 115.554 280.646 114.098C284.43 112.643 287.438 110.67 289.67 108.179C291.901 105.689 293.017 102.988 293.017 100.077C293.017 97.1988 291.901 94.5304 289.67 92.0723C287.438 89.5819 284.43 87.6089 280.646 86.1535C276.862 84.698 272.762 83.9703 268.347 83.9703Z" fill="#B0B0B5"/>
<path d="M348.545 83.1941H350V117.106H347.817L311.94 84.1644V117.106H310.484V83.1941H312.668L348.545 116.136V83.1941Z" fill="#CECECE"/>
</svg>
